<svg xmlns="http://www.w3.org/2000/svg" viewBox="0 0 301.84 223.34"><defs><style>.cls-1{font-size:150px;}.cls-1,.cls-2,.cls-3{fill:"currentColor"}.cls-1,.cls-3{font-family:KohinoorDevanagari-Light, Kohinoor Devanagari;font-weight:300;}.cls-3{font-size:50px;}</style></defs><g id="Layer_2" data-name="Layer 2"><g id="Layer_1-2" data-name="Layer 1"><text class="cls-1" transform="translate(3.5 134.85)">गौतम</text><path class="cls-2" d="M.74,164.75c-.45,0-.24.41-.29.49C1.17,165.06.7,164.64.74,164.75Z"/><polygon class="cls-2" points="7.92 162.89 7.81 163.07 8.83 162.52 7.92 162.89"/><path class="cls-2" d="M14.75,162c-.73-.63-2.46.42-3.71.32l-.22-.13-.48.64A24.77,24.77,0,0,1,14.75,162Z"/><path class="cls-2" d="M18.57,163.12c-.26-.25.76-.34-.86,0l.17.05A4.89,4.89,0,0,1,18.57,163.12Z"/><path class="cls-2" d="M17.88,163.19c-.72.11.49.17,0,0Z"/><path class="cls-2" d="M21.18,162.64l-.92.35c.22.14,1.06.09.76.24C22,163,21.76,162.85,21.18,162.64Z"/><path class="cls-2" d="M22,162l-.48.16C21.63,162.24,21.77,162.25,22,162Z"/><path class="cls-2" d="M20.52,162.52l1-.34c-.15-.1-.19-.33-.47.13C21.13,162.1,21,162.32,20.52,162.52Z"/><path class="cls-2" d="M19.92,162.48c-.55-.1-1.25-.12-.33-.47C17.79,162.32,18.12,162.78,19.92,162.48Z"/><path class="cls-2" d="M15,161.26l-.74-.12-.58.32C14,161.3,15.08,161.48,15,161.26Z"/><path class="cls-2" d="M27.13,162.35c0-.16-.37-.37-.46-.55l-.68.25C26.36,162.11,27.05,162.13,27.13,162.35Z"/><path class="cls-2" d="M26.67,161.8l1-.38C26.75,161.5,26.59,161.64,26.67,161.8Z"/><polygon class="cls-2" points="22.09 161.22 20.44 161.95 22.43 161.17 22.09 161.22"/><polygon class="cls-2" points="31.13 161.93 30.57 162.34 31.57 161.69 31.13 161.93"/><path class="cls-2" d="M33.78,161.57c-.41.34.65.42.21.65a6.31,6.31,0,0,0,1.83-.73A4,4,0,0,1,33.78,161.57Z"/><path class="cls-2" d="M36.72,161.06a6.6,6.6,0,0,0-.9.43A3.89,3.89,0,0,0,36.72,161.06Z"/><path class="cls-2" d="M29.48,161.3a1.22,1.22,0,0,0,.88.34l-.46-.38Z"/><path class="cls-2" d="M29.88,161.25h0l.89-.08Z"/><path class="cls-2" d="M29.38,161.31h.1S29.41,161.25,29.38,161.31Z"/><path class="cls-2" d="M24.89,161.3c.59-.31,1.84-.71.56-.93C25,160.71,25.78,160.84,24.89,161.3Z"/><path class="cls-2" d="M28.81,160.83l-1.13,0c0,.11.26.25,0,.4Z"/><polygon class="cls-2" points="29.34 160.64 28.81 160.84 29.23 160.82 29.34 160.64"/><path class="cls-2" d="M34.77,160.87a5.22,5.22,0,0,1,1.58-.41,15.57,15.57,0,0,0-1.94.09C34.34,160.69,34.09,161,34.77,160.87Z"/><path class="cls-2" d="M32.39,161l.1,0C32.42,161,32.37,161,32.39,161Z"/><polygon class="cls-2" points="42.2 159.88 42.1 159.81 42.09 159.88 42.2 159.88"/><path class="cls-2" d="M34.3,160.48a1.58,1.58,0,0,0-1,.27c.36-.08.73-.15,1.14-.2C34.44,160.49,34.45,160.44,34.3,160.48Z"/><path class="cls-2" d="M38.33,160.68a6.85,6.85,0,0,0-.85-.14C37.73,160.64,38.25,160.8,38.33,160.68Z"/><path class="cls-2" d="M32.67,161.08l-.07,0C32.77,161.18,32.74,161.14,32.67,161.08Z"/><path class="cls-2" d="M32.67,161.08a2.84,2.84,0,0,0,.6-.33,6.61,6.61,0,0,0-.78.23A.52.52,0,0,1,32.67,161.08Z"/><path class="cls-2" d="M43.71,157c-.05.41-1.27.89-2.41.58-1,.4-.21,1.62.8,2.26,0-.18,0-.34,1.08-.68-.41-.17-2.5-.26-1.6-.71,1.44-.34,1.21,0,1.94.16-.65-.43,1.79-.89,1.4-1.58l-1.26.38C43.63,157.27,44.07,157,43.71,157Z"/><path class="cls-2" d="M40,160l-.45.09a5.14,5.14,0,0,1,1.62.39c.74-.27.88-.43.92-.57l-2.24.17Z"/><path class="cls-2" d="M37.51,160.27c.31-.47,1.38-.75.67-1.16-1.33.17-.9.46-1.67.73,2.13-.34-.59.31,1,.38a8.05,8.05,0,0,1-1.14.24c.39,0,.77,0,1.13.08l-.06,0h0c-.09,0-.13-.07,0,0l0,0a.65.65,0,0,1,.08-.17c.63,0,.11.1-.08.17,0,0,0,.05,0,.07h0l2.13-.46A11.92,11.92,0,0,0,37.51,160.27Z"/><path class="cls-2" d="M26.49,159.32a.11.11,0,0,1,.08.09C26.71,159.34,26.75,159.3,26.49,159.32Z"/><path class="cls-2" d="M27.41,159.48a1.19,1.19,0,0,1-.78.28c-.45-.08,0-.21-.06-.35-.29.15-1,.43-.05.53l.14-.08c.89.06,2.06.47,1.91.54A3,3,0,0,0,27.41,159.48Z"/><path class="cls-2" d="M32.51,159.76l1.77-.41-1-.27.07.22C32.37,159.32,32.62,159.57,32.51,159.76Z"/><polygon class="cls-2" points="42.43 160.07 42.24 160.55 43.21 159.81 42.43 160.07"/><polygon class="cls-2" points="44.75 159.79 44.7 160.19 45.3 159.89 44.75 159.79"/><path class="cls-2" d="M176.48,148.25l.53-.11A2.62,2.62,0,0,0,176.48,148.25Z"/><path class="cls-2" d="M172.64,148.22l-.09.2C172.72,148.31,172.8,148.23,172.64,148.22Z"/><path class="cls-2" d="M102,155.29c.79.33,1.68.85,1.57.41l-.26-.42A3,3,0,0,1,102,155.29Z"/><path class="cls-2" d="M141.23,151.05l-.23-.13-.51.43Z"/><path class="cls-2" d="M141.72,149.24l1,.25A4.81,4.81,0,0,0,141.72,149.24Z"/><path class="cls-2" d="M197.47,147.91l.62-.43C197.12,147.47,197.55,147.7,197.47,147.91Z"/><path class="cls-2" d="M68.59,157.48a8.19,8.19,0,0,0,1.68.12C69.45,157.42,68.77,157.1,68.59,157.48Z"/><path class="cls-2" d="M175,152.85c.33-.08.47-.16.46-.26C175.1,152.66,174.91,152.75,175,152.85Z"/><path class="cls-2" d="M72.18,157.44l-.36-.07a7.79,7.79,0,0,1-1.55.23A2.56,2.56,0,0,0,72.18,157.44Z"/><path class="cls-2" d="M273.49,151.41l.17.07C273.68,151.42,273.6,151.41,273.49,151.41Z"/><path class="cls-2" d="M295.22,157.48c-.22,0-.57,0-.91,0A2.79,2.79,0,0,0,295.22,157.48Z"/><path class="cls-2" d="M54.13,159.07c-.49.07-.07.05,0,0Z"/><path class="cls-2" d="M51.57,157.59c.1-.06.18-.13.18-.23A.35.35,0,0,1,51.57,157.59Z"/><path class="cls-2" d="M76.9,154.36h0C76.79,154.29,76.82,154.3,76.9,154.36Z"/><path class="cls-2" d="M53.37,158.94A4,4,0,0,0,54,159,5.13,5.13,0,0,0,53.37,158.94Z"/><path class="cls-2" d="M53.49,159.14h-.43C53,159.22,53.06,159.26,53.49,159.14Z"/><path class="cls-2" d="M54.82,159a5.5,5.5,0,0,1-.8,0c.1,0,.14,0,.11.06Z"/><path class="cls-2" d="M232.73,150.36l.11,0C233.34,150.25,233.12,150.27,232.73,150.36Z"/><path class="cls-2" d="M114.68,150.1l-.06,0h.08Z"/><path class="cls-2" d="M116.45,149.71a1.88,1.88,0,0,1-1.75.43l.65,1.22Z"/><path class="cls-2" d="M185.68,148.12l-1.25-.39c1.52-.64,2.61-.42,1.44-1-.19,1.35-4.89.14-5.07,1.49L180,148c.23,0,.27-.07.51-.06-1.61-.65-1.2,1-3.27.79-.73-.1-1.23-.3-.74-.46l-1.61.34c-.47,0-.35-.27.11-.24l-2.45.11,0,0a12.29,12.29,0,0,1-1.53.68c-.63-.2.31-.14.15-.31l-1.36.33c-.55-.36.57-.7,1.51-.65-1.28-1.35-1.13.33-3.87-.42l1.28-.19c-.83-.76-1.83-.46-3.29-.92.35.24,2.92,1.17,1.44,1.52a3,3,0,0,0-1.75.15c0-.48-.79-.35-1.77-.31l.06-.64c-1,.2-1,.52-1.57.82a1.76,1.76,0,0,1-1.71-.95c-1.88-.08,1.31.77-.91.92a11.61,11.61,0,0,0-4.52.47c-1.1-.21.18-.4-.21-.58l-1,.53c-.24,0-.16-.17-.13-.25-.81.21,0,.64-1.33.83-.33.7-2.65-1-4.22-.13-.4-.17.18-.4,0-.64a16.44,16.44,0,0,0-3.63,1.19l-1.53-.38c1.13.45-.28,1.06-1.52,1.56a10.33,10.33,0,0,0,1,.5l-2,.4c-.25-.1-.05-.32.27-.6a3.08,3.08,0,0,0-.36.17c-.72-.22-.36-.6.14-1l.73.37c.48-.4.93-.84.82-1.21a2.57,2.57,0,0,1-.65.19c.12-.11.2-.21.14-.27s-.27.08-.59.25l-.48-.7-.1.29-2.63-.37c-1.85.77-3.44,1.86-6.4,2.25.72-.55.13-.86.15-1.48.83.62,2.29-.34,3.83-.26-.8,0-.63-.34-.43-.45l-2.73.67c0-.51-.59-.36-1.32-.54.58,1-2,.75-3.12,1.11-.09-.34.17-.69,1.53-.67-1.53-.69-1.89,1.26-3.39.68.33,0,.51,0,.64-.15-.77.33-2.68.17-2.24-.14l.33,0c-2.21,0-6.72.27-7,1.13a4,4,0,0,1,.37-1.21l-3.8,3c.31-.74-1.11-2.42.7-2.91a4.63,4.63,0,0,0-2.28.13c.37.08,1,1,.46,1.1a11.05,11.05,0,0,0-2.64-1c.54.12,0,1.3-.85,1.31.12-.18-.13-1.12.18-1.26l-2.06,1.24c.52-.23,0-1-.44-1.25.23.21-1.83.08-2.39.22l.91.22c-2.39,0-2.27,1.7-4.63,1.78.27-.25.62-1.47-.59-1.54-.52.6-2.28,2.9-4.34,3.45l-.42-.3-1.58.46A31.82,31.82,0,0,1,99.08,151c-.91-.21-.27-.37-1.61-.27-.49-.28.7-.51,1.1-.55l-3.13,0c.18.66-2.34.81-2.19,1.37l3.34-.9c.18.67-1.84,2-4,2-.57-.23.35-1.22.29-1.44a4.76,4.76,0,0,1-2.28.43l.91-.42c-1.24-.17-1.94,1-3.46.49-.51,0-1.58-.76-1.64-.36.89.71,1.21,3.07.69,3.68a22.88,22.88,0,0,1-3.32-.88c-.88-.55,1.16-1.52.41-2,0,.19-.47.45-.65.53-.55-.12.18-.58-1-.42-.14.7-2.36.11-.51.62-1.12.27-1.21-.06-2.54.06.45.41-1.09,1.58-2.21,1.85,0-.18-.22-.38-.35-.48-2.33.09-3.6-.08-5.77.08-.21-.15-1.27-.26-.85-.59a2.8,2.8,0,0,1-1.24.47c-1.34-.48,1.49-.21.44-.84,0,.41-1.68.69-2.61,1,.34.58,2.21-.07,3.14-.39.07.84-1.52,1.86-3.75,2.43-1.77.36-.82-.47-1.12-.33-3.39.14-2.75,1.71-5.61,1.34-1.16-.45-.14-1.07-.42-1.43,1.45-.33,2.28.15,3.27,0L61.13,156a4.06,4.06,0,0,1,2-.32c-1-.39-5.72.36-8.36.18-.45.23-1.23.49-.83.67l.81-.16c.8.36-1.49.75-.43.85a8.74,8.74,0,0,1-3.85.92l-.35-.59c0,.18,1,.27,1.47,0-.62.33-2.46-.59-3.09.27l1.13.32c-1.08.41-2.39,1.2-3.79,1.14.69.54.31-.1,1.36.51-.93-.8,3.53-.31,2.08-1.1,1.08.72,1.77.18,3.14.75-.06-.2-.5-.34.67-.35a.9.9,0,0,1,.23-.2h0s0-.05,0,0a1.36,1.36,0,0,1-.61-.25c.53-.52,2.37-.68,3-1,.69,0-.27.26.12.44l.9-.45c.13.44,1.89.59.3,1l1.45-.1a6,6,0,0,0,2.78-.07c.7,0,1.69-.64,1.12-.24l2.26-.47,0,.11c2.26-.13,4.58-1.12,7.22-.53a9.86,9.86,0,0,1,2.8-.36l.28.37c1-.22,2.95.18,3.34-.26,1.13,1,4.74-.1,6.47,0l0-.51a23.28,23.28,0,0,0,3.75-.58l-.12-.44c1.24-.46,3.27.09,5.27-.09-.13.18-.64.17-1,.09,2.44.83,5-1,7.2-.42a2.14,2.14,0,0,1,1.31-.07l-.13,0a1.6,1.6,0,0,0,.22,0c.24.06.49.14.76.19a3.3,3.3,0,0,0-.64-.2,10.73,10.73,0,0,0,1.65-.27l.3.46.14,0c.61.15.47-.25.13-.6a3.32,3.32,0,0,0,.8-.33c.54.75,1.61-.35,2.33.44.4-.43,3.1-.48,3.38-1.35,0,.11.21.16-.12.18a4.05,4.05,0,0,0,2-.15l.32.59,1.47-.89c.93.33,1.32.53.44,1,2.16-.82,1.76-.35,3.6-1.14l-.07.4c.66,0,1.71-.62,2.13-.31,1.52.69,7.39-.2,11.25.34-.78-1.14,1.8.45,1.92-.45.24.27.78.41.16.67,1.95-.33,3,.35,4.29-.44.23.27-.41.41-.21.57.16-.07.62-.26.83-.1s-.28.24-.59.37c2-.1,2.17-1,2.3-1.76a2,2,0,0,0,2.24-.26c.36.25,1,.51-.28.64.7,0,4.28.26,4.34-.38.22.16,1,0,1.16-.06,1.57,0,1.71.05,3.25-.05l-.43-.1c.59-.79,1.27-.2,2.51-.31l0,.08c2.86.52,1.23-.28,4.05.32l-.16-.48c.24-1,2.5.57,4.12.16l-.59-.27c.89-.37,2.51,1.37,3.4,1.49.2.08-.3.14-.57.21,2.34.58.29-.63,2-.8.32.34-.41.87.76.92.59.27,3.4-1.17,5-.51-.36-.26-.71-.52.1-.72,1.24-.09,3.36,1,4.48.16.16.08.22.14.23.21.94-.21,3.08-.35,3.65-.8.88,1.66,5.91-.81,5.89.72l2.92-.08-.08.16A5,5,0,0,0,191,152c.43.11.11.25.08.33a8.72,8.72,0,0,0,5.29-.45l.23.5c.63-.28,3.93.83,6.62.29a.45.45,0,0,1-.3.22c3-.56,7.17,1.5,8.32-.26l2-.39c-2.57-.21.4-.77-.65-1.1,1-.08,2.6.61,1.35.67l-.19-.09c-.48.93,3.19.42,3.1,1.06,5.06.09,10,.73,14.7,1L231,153l1.65.11c.43.19.56.6-.61.52.6.44,2-.27,2-.43,2.3.4-.93.82-.22.87l1,0-.21-.09a3.75,3.75,0,0,1,2.28-.49c.89.19.44.47.79.52,0,.05.12.08.54,0l2.08.15-.81-.61c.94-.25,2,.11,1-.59.68.54,2.62.71,4.49.79a28.3,28.3,0,0,1,4.1.3,11.67,11.67,0,0,1,4.16-.13c-.38-.14-.58-.8.78-.65-.57,1.31,2.46.72,3.5,1.74-.94-.69,3.88.06,2.39-.93,1.13.17,0,.5.88.87,2.74-.39,5.94.7,9.29.76.06-.17-.48-.48.25-.69l1.7,1c.67,0,.68-1,1.84-.28-.16-.16-.39-.4.05-.42a69.69,69.69,0,0,0,9.95.88,38,38,0,0,1,10,1.57c-.87-.42-.26-.4.42-.36-.44-.12.05-.43,0-.67l2.72.89c.57-.62,3,.2,3.33-.41l-.89,0c1.24-.64-1.49-1.78-1.24-2.72-1.38.73-3.35-1.55-5.61-.52-.46-.23.43-.27.2-.51a3.06,3.06,0,0,1-2.46.11l.15-.09c-3.44-.18-4.88-.73-8.72-1.29l.25.49a4.43,4.43,0,0,1-1.37-.42c-1,.65,2.33.2,1.4.93-1-1-5.85-.42-6.51-1.56-1.28-.1.33.57-.94.47l-.32-.32-.35.36c-.83-.12-1.23-.52-1.24-.77a4.38,4.38,0,0,0,.8,0c-1.06-.42-3.07-.09-3.44-.23l1.22.27c-3.5,0-7.73-.66-11.14-.23l.24.24c-2.59.27-2-.36-4.88-.32l.11,0a5.45,5.45,0,0,1-2.11.19c.72-.22-1.32-.58-.37-.82-2.81.29-1.4.27-3.28,1l-.41-.39a3.41,3.41,0,0,1-2.12.49c1.17-.26-.87-.62.45-1-2.92-1-4.44.6-5.74-.64-1.41,1,2.54.67,1.76.86.63.36-1.15.72-2.08.58s-1.55-1.38-3.93-1.46c.24,0,.26-.06.49-.05-.88-.3-1.76.28-2.83-.19-.64.6-1.42-.09-1.63.69l2.19-.09c-1.24.15-2.44,1-4.46.5a4,4,0,0,1,1.2-.44c-.59-.26-1.15.11-1.76-.16.2-.78,2.66-.06,4-.61-.63-.36-2.53.47-1.83-.36-1,1.05-2.34-.23-4,.53l.13-.47a4,4,0,0,1-1.27.24l.87-.58c-1.32.47-2.5-.57-3.76-.32,2.62.07.57.59,1.67,1-3.26.54-1.82-1.29-5.45-1.17.49-.05,1.83.34,1.06.54a6.86,6.86,0,0,1-2-.59c-2.41,0,.35.5-.68.77-.8-.61-1.18.2-2.24.35V149c-2.73-.38-.76,1-3.21.54l1.06-.64-1.29.14.28-.54a6.21,6.21,0,0,1-3.2.06c.31.35-.2.87-1.41.85-.82-.31.47-.44-1.25-.42a1.2,1.2,0,0,1,1.57-.2c.08-.15.39-.29.47-.44a8.16,8.16,0,0,0-2.86-.15,2.27,2.27,0,0,1,.67.13l-2.5.62c-.39-.18-.08-.33.24-.46-.51,0-.86.26-1.61.29.2-.39.17-.79,1.22-1l-2.38.4c-.16-.18-1.21-.49-.9-.63-1.31-.25-3.24.72-5,.39a1.5,1.5,0,0,1-.65.2c-1.63-.12-3.08-.62-5-.11l-1.09-.71c-1.53.13,1.48.9-1.06,1.13-1.79.2-.66-.61-1.29-.81a5.7,5.7,0,0,1-4.09.51A9.4,9.4,0,0,1,185.68,148.12Zm-18.76.35c.36-.1,1.08-.43,1.35-.14C167.86,148.88,167.54,148.62,166.92,148.47Zm-28.48,1.73a1.43,1.43,0,0,1,1.17.07A3,3,0,0,1,138.44,150.2Zm-78.93,8s0,0,0,0C60.37,158.28,60.08,158.23,59.51,158.19Zm-1.69-.07c-.16.08-.14.15-.07.21a1.52,1.52,0,0,1,.92-.17C58.54,158,58.31,158,57.82,158.12Zm180.08-4.29-.32-.14C238.32,153.58,238.11,153.69,237.9,153.83Z"/><path class="cls-2" d="M141.66,149.45a.49.49,0,0,1,.16.26C142,149.62,142,149.53,141.66,149.45Z"/><path class="cls-2" d="M197.35,148h.06a.24.24,0,0,0,.06-.09Z"/><path class="cls-2" d="M83.45,152a1.84,1.84,0,0,1,.69.2C84.15,152.08,84,152,83.45,152Z"/><path class="cls-2" d="M49.05,159.78l1.05-.23a2.12,2.12,0,0,1-1-.06C49.16,159.6,49.38,159.74,49.05,159.78Z"/><path class="cls-2" d="M39.46,157.71c-.15.08-.33,0-.48.12l.06.22C39.71,158,40.16,157.74,39.46,157.71Z"/><path class="cls-2" d="M47.9,158.28c-.12-.39-.78-.19-1.52,0l.13,0C46.34,158.81,47.12,158.55,47.9,158.28Z"/><path class="cls-2" d="M46.2,158.27a4,4,0,0,1-.69.07C45.45,158.58,45.8,158.36,46.2,158.27Z"/><path class="cls-2" d="M55.73,158.58c-.37-.07-.18.54-.4.39C55,159.52,57.65,158.12,55.73,158.58Z"/><polygon class="cls-2" points="47.16 157.01 47.48 157.48 47.86 157.04 47.16 157.01"/><path class="cls-2" d="M53.13,156.8l-1.22,0c0,.08-.12.14-.3.2C52.35,156.92,53.17,157,53.13,156.8Z"/><path class="cls-2" d="M51.61,157a2.82,2.82,0,0,0-1,.18A7.47,7.47,0,0,0,51.61,157Z"/><polygon class="cls-2" points="48.79 156.7 49.16 156.77 50.01 156.72 48.79 156.7"/><path class="cls-2" d="M66,155.78l1.3-.26c.12-.18-.25-.25-.73-.14C66.3,155.52,65.82,155.63,66,155.78Z"/><path class="cls-2" d="M62,154.74a1.15,1.15,0,0,1,.61.33v-.62Z"/><path class="cls-2" d="M65.77,154.28c.12-.19,1.87-.66.21-.48C65.86,154,64.55,154.24,65.77,154.28Z"/><polygon class="cls-2" points="85.6 153.56 85.27 153.59 85.39 154.6 85.6 153.56"/><path class="cls-2" d="M102.91,150c-1.58-.15-.34.65-1.77.42-.35.27,1.17.19.81.42C102.87,150.57,103.38,150.69,102.91,150Z"/><path class="cls-2" d="M102,150.88a3.46,3.46,0,0,0-.47.18A2.9,2.9,0,0,0,102,150.88Z"/><polygon class="cls-2" points="298.83 158.33 299.8 158.63 299.19 158.23 298.83 158.33"/><path class="cls-2" d="M300.81,157.74l.17.67.66-.54C301.41,157.88,301,157.9,300.81,157.74Z"/><path class="cls-2" d="M164.12,147.2l-.08.16c.16.17.4.18.87.2Z"/><polygon class="cls-2" points="177.75 147.61 177.51 147.6 177.95 148.19 177.75 147.61"/><path class="cls-2" d="M189.19,146.87c-.47,0-1,.1-1.49.08C188.72,146.84,189.31,147.61,189.19,146.87Z"/><text class="cls-3" transform="translate(82.92 198.24)">gautama</text></g></g></svg>